<mxfile host="app.diagrams.net" modified="2021-01-09T06:33:17.472Z" agent="5.0 (Windows NT 10.0; Win64; x64) AppleWebKit/537.36 (KHTML, like Gecko) Chrome/87.0.4280.141 Safari/537.36" etag="ToG9Nwjz2fpy4Xl7n2ka" version="14.1.8" type="github">
  <diagram id="kmbewxWfFErhUaEFidWY" name="第 1 页">
    <mxGraphModel dx="1185" dy="635" grid="0" gridSize="10" guides="1" tooltips="1" connect="1" arrows="1" fold="1" page="1" pageScale="1" pageWidth="827" pageHeight="1169" math="0" shadow="0">
      <root>
        <mxCell id="0" />
        <mxCell id="1" parent="0" />
        <mxCell id="lq-rZMdZzkP-MELuQwHF-2" value="" style="shape=table;html=1;whiteSpace=wrap;startSize=0;container=1;collapsible=0;childLayout=tableLayout;" parent="1" vertex="1">
          <mxGeometry x="110" y="140" width="100" height="540" as="geometry" />
        </mxCell>
        <mxCell id="lq-rZMdZzkP-MELuQwHF-18" style="shape=partialRectangle;html=1;whiteSpace=wrap;collapsible=0;dropTarget=0;pointerEvents=0;fillColor=none;top=0;left=0;bottom=0;right=0;points=[[0,0.5],[1,0.5]];portConstraint=eastwest;" parent="lq-rZMdZzkP-MELuQwHF-2" vertex="1">
          <mxGeometry width="100" height="41" as="geometry" />
        </mxCell>
        <mxCell id="lq-rZMdZzkP-MELuQwHF-19" value="人员组织管理" style="shape=partialRectangle;html=1;whiteSpace=wrap;connectable=0;fillColor=#dae8fc;top=0;left=0;bottom=0;right=0;overflow=hidden;strokeColor=#6c8ebf;" parent="lq-rZMdZzkP-MELuQwHF-18" vertex="1">
          <mxGeometry width="100" height="41" as="geometry" />
        </mxCell>
        <mxCell id="lq-rZMdZzkP-MELuQwHF-7" value="" style="shape=partialRectangle;html=1;whiteSpace=wrap;collapsible=0;dropTarget=0;pointerEvents=0;fillColor=none;top=0;left=0;bottom=0;right=0;points=[[0,0.5],[1,0.5]];portConstraint=eastwest;" parent="lq-rZMdZzkP-MELuQwHF-2" vertex="1">
          <mxGeometry y="41" width="100" height="51" as="geometry" />
        </mxCell>
        <mxCell id="lq-rZMdZzkP-MELuQwHF-8" value="特殊部门/人员" style="shape=partialRectangle;html=1;whiteSpace=wrap;connectable=0;fillColor=#dae8fc;top=0;left=0;bottom=0;right=0;overflow=hidden;strokeColor=#6c8ebf;" parent="lq-rZMdZzkP-MELuQwHF-7" vertex="1">
          <mxGeometry width="100" height="51" as="geometry" />
        </mxCell>
        <mxCell id="lq-rZMdZzkP-MELuQwHF-11" value="" style="shape=partialRectangle;html=1;whiteSpace=wrap;collapsible=0;dropTarget=0;pointerEvents=0;fillColor=none;top=0;left=0;bottom=0;right=0;points=[[0,0.5],[1,0.5]];portConstraint=eastwest;" parent="lq-rZMdZzkP-MELuQwHF-2" vertex="1">
          <mxGeometry y="92" width="100" height="40" as="geometry" />
        </mxCell>
        <mxCell id="lq-rZMdZzkP-MELuQwHF-12" value="特殊群组" style="shape=partialRectangle;html=1;whiteSpace=wrap;connectable=0;fillColor=#dae8fc;top=0;left=0;bottom=0;right=0;overflow=hidden;strokeColor=#6c8ebf;" parent="lq-rZMdZzkP-MELuQwHF-11" vertex="1">
          <mxGeometry width="100" height="40" as="geometry" />
        </mxCell>
        <mxCell id="lq-rZMdZzkP-MELuQwHF-28" style="shape=partialRectangle;html=1;whiteSpace=wrap;collapsible=0;dropTarget=0;pointerEvents=0;fillColor=#dae8fc;top=0;left=0;bottom=0;right=0;points=[[0,0.5],[1,0.5]];portConstraint=eastwest;strokeColor=#6c8ebf;" parent="lq-rZMdZzkP-MELuQwHF-2" vertex="1">
          <mxGeometry y="132" width="100" height="41" as="geometry" />
        </mxCell>
        <mxCell id="lq-rZMdZzkP-MELuQwHF-29" value="部门同步管理" style="shape=partialRectangle;html=1;whiteSpace=wrap;connectable=0;fillColor=none;top=0;left=0;bottom=0;right=0;overflow=hidden;" parent="lq-rZMdZzkP-MELuQwHF-28" vertex="1">
          <mxGeometry width="100" height="41" as="geometry" />
        </mxCell>
        <mxCell id="lq-rZMdZzkP-MELuQwHF-30" style="shape=partialRectangle;html=1;whiteSpace=wrap;collapsible=0;dropTarget=0;pointerEvents=0;fillColor=none;top=0;left=0;bottom=0;right=0;points=[[0,0.5],[1,0.5]];portConstraint=eastwest;" parent="lq-rZMdZzkP-MELuQwHF-2" vertex="1">
          <mxGeometry y="173" width="100" height="41" as="geometry" />
        </mxCell>
        <mxCell id="lq-rZMdZzkP-MELuQwHF-31" value="美事统计后台" style="shape=partialRectangle;html=1;whiteSpace=wrap;connectable=0;top=0;left=0;bottom=0;right=0;overflow=hidden;fillColor=#d5e8d4;strokeColor=#82b366;" parent="lq-rZMdZzkP-MELuQwHF-30" vertex="1">
          <mxGeometry width="100" height="41" as="geometry" />
        </mxCell>
        <mxCell id="lq-rZMdZzkP-MELuQwHF-26" style="shape=partialRectangle;html=1;whiteSpace=wrap;collapsible=0;dropTarget=0;pointerEvents=0;fillColor=none;top=0;left=0;bottom=0;right=0;points=[[0,0.5],[1,0.5]];portConstraint=eastwest;" parent="lq-rZMdZzkP-MELuQwHF-2" vertex="1">
          <mxGeometry y="214" width="100" height="41" as="geometry" />
        </mxCell>
        <mxCell id="lq-rZMdZzkP-MELuQwHF-27" value="版本管理" style="shape=partialRectangle;html=1;whiteSpace=wrap;connectable=0;fillColor=#d5e8d4;top=0;left=0;bottom=0;right=0;overflow=hidden;strokeColor=#82b366;" parent="lq-rZMdZzkP-MELuQwHF-26" vertex="1">
          <mxGeometry width="100" height="41" as="geometry" />
        </mxCell>
        <mxCell id="lq-rZMdZzkP-MELuQwHF-24" style="shape=partialRectangle;html=1;whiteSpace=wrap;collapsible=0;dropTarget=0;pointerEvents=0;fillColor=none;top=0;left=0;bottom=0;right=0;points=[[0,0.5],[1,0.5]];portConstraint=eastwest;" parent="lq-rZMdZzkP-MELuQwHF-2" vertex="1">
          <mxGeometry y="255" width="100" height="40" as="geometry" />
        </mxCell>
        <mxCell id="lq-rZMdZzkP-MELuQwHF-25" value="应用中心" style="shape=partialRectangle;html=1;whiteSpace=wrap;connectable=0;fillColor=#d5e8d4;top=0;left=0;bottom=0;right=0;overflow=hidden;strokeColor=#82b366;" parent="lq-rZMdZzkP-MELuQwHF-24" vertex="1">
          <mxGeometry width="100" height="40" as="geometry" />
        </mxCell>
        <mxCell id="lq-rZMdZzkP-MELuQwHF-22" style="shape=partialRectangle;html=1;whiteSpace=wrap;collapsible=0;dropTarget=0;pointerEvents=0;fillColor=none;top=0;left=0;bottom=0;right=0;points=[[0,0.5],[1,0.5]];portConstraint=eastwest;" parent="lq-rZMdZzkP-MELuQwHF-2" vertex="1">
          <mxGeometry y="295" width="100" height="41" as="geometry" />
        </mxCell>
        <mxCell id="lq-rZMdZzkP-MELuQwHF-23" value="推送消息" style="shape=partialRectangle;html=1;whiteSpace=wrap;connectable=0;fillColor=#d5e8d4;top=0;left=0;bottom=0;right=0;overflow=hidden;strokeColor=#82b366;" parent="lq-rZMdZzkP-MELuQwHF-22" vertex="1">
          <mxGeometry width="100" height="41" as="geometry" />
        </mxCell>
        <mxCell id="lq-rZMdZzkP-MELuQwHF-34" style="shape=partialRectangle;html=1;whiteSpace=wrap;collapsible=0;dropTarget=0;pointerEvents=0;fillColor=none;top=0;left=0;bottom=0;right=0;points=[[0,0.5],[1,0.5]];portConstraint=eastwest;" parent="lq-rZMdZzkP-MELuQwHF-2" vertex="1">
          <mxGeometry y="336" width="100" height="41" as="geometry" />
        </mxCell>
        <mxCell id="lq-rZMdZzkP-MELuQwHF-35" value="表情包管理" style="shape=partialRectangle;html=1;whiteSpace=wrap;connectable=0;fillColor=#d5e8d4;top=0;left=0;bottom=0;right=0;overflow=hidden;strokeColor=#82b366;" parent="lq-rZMdZzkP-MELuQwHF-34" vertex="1">
          <mxGeometry width="100" height="41" as="geometry" />
        </mxCell>
        <mxCell id="lq-rZMdZzkP-MELuQwHF-32" style="shape=partialRectangle;html=1;whiteSpace=wrap;collapsible=0;dropTarget=0;pointerEvents=0;fillColor=none;top=0;left=0;bottom=0;right=0;points=[[0,0.5],[1,0.5]];portConstraint=eastwest;" parent="lq-rZMdZzkP-MELuQwHF-2" vertex="1">
          <mxGeometry y="377" width="100" height="41" as="geometry" />
        </mxCell>
        <mxCell id="lq-rZMdZzkP-MELuQwHF-33" value="意见评价" style="shape=partialRectangle;html=1;whiteSpace=wrap;connectable=0;fillColor=#d5e8d4;top=0;left=0;bottom=0;right=0;overflow=hidden;strokeColor=#82b366;" parent="lq-rZMdZzkP-MELuQwHF-32" vertex="1">
          <mxGeometry width="100" height="41" as="geometry" />
        </mxCell>
        <mxCell id="lq-rZMdZzkP-MELuQwHF-36" style="shape=partialRectangle;html=1;whiteSpace=wrap;collapsible=0;dropTarget=0;pointerEvents=0;fillColor=none;top=0;left=0;bottom=0;right=0;points=[[0,0.5],[1,0.5]];portConstraint=eastwest;" parent="lq-rZMdZzkP-MELuQwHF-2" vertex="1">
          <mxGeometry y="418" width="100" height="40" as="geometry" />
        </mxCell>
        <mxCell id="lq-rZMdZzkP-MELuQwHF-37" value="无线投屏固件" style="shape=partialRectangle;html=1;whiteSpace=wrap;connectable=0;fillColor=#d5e8d4;top=0;left=0;bottom=0;right=0;overflow=hidden;strokeColor=#82b366;" parent="lq-rZMdZzkP-MELuQwHF-36" vertex="1">
          <mxGeometry width="100" height="40" as="geometry" />
        </mxCell>
        <mxCell id="lq-rZMdZzkP-MELuQwHF-38" style="shape=partialRectangle;html=1;whiteSpace=wrap;collapsible=0;dropTarget=0;pointerEvents=0;fillColor=none;top=0;left=0;bottom=0;right=0;points=[[0,0.5],[1,0.5]];portConstraint=eastwest;" parent="lq-rZMdZzkP-MELuQwHF-2" vertex="1">
          <mxGeometry y="458" width="100" height="41" as="geometry" />
        </mxCell>
        <mxCell id="lq-rZMdZzkP-MELuQwHF-39" value="视频会议管理" style="shape=partialRectangle;html=1;whiteSpace=wrap;connectable=0;fillColor=#ffe6cc;top=0;left=0;bottom=0;right=0;overflow=hidden;strokeColor=#d79b00;" parent="lq-rZMdZzkP-MELuQwHF-38" vertex="1">
          <mxGeometry width="100" height="41" as="geometry" />
        </mxCell>
        <mxCell id="lq-rZMdZzkP-MELuQwHF-40" style="shape=partialRectangle;html=1;whiteSpace=wrap;collapsible=0;dropTarget=0;pointerEvents=0;fillColor=none;top=0;left=0;bottom=0;right=0;points=[[0,0.5],[1,0.5]];portConstraint=eastwest;" parent="lq-rZMdZzkP-MELuQwHF-2" vertex="1">
          <mxGeometry y="499" width="100" height="41" as="geometry" />
        </mxCell>
        <mxCell id="lq-rZMdZzkP-MELuQwHF-41" value="首页活动管理" style="shape=partialRectangle;html=1;whiteSpace=wrap;connectable=0;fillColor=#ffe6cc;top=0;left=0;bottom=0;right=0;overflow=hidden;strokeColor=#d79b00;" parent="lq-rZMdZzkP-MELuQwHF-40" vertex="1">
          <mxGeometry width="100" height="41" as="geometry" />
        </mxCell>
        <mxCell id="Zx4kyqt7cUMsGUTJRAwY-5" style="edgeStyle=orthogonalEdgeStyle;rounded=0;orthogonalLoop=1;jettySize=auto;html=1;entryX=0;entryY=0.5;entryDx=0;entryDy=0;entryPerimeter=0;" parent="1" source="lq-rZMdZzkP-MELuQwHF-44" target="Zx4kyqt7cUMsGUTJRAwY-2" edge="1">
          <mxGeometry relative="1" as="geometry" />
        </mxCell>
        <mxCell id="lq-rZMdZzkP-MELuQwHF-44" value="cmsrongyun" style="rounded=0;whiteSpace=wrap;html=1;" parent="1" vertex="1">
          <mxGeometry x="210" y="140" width="140" height="180" as="geometry" />
        </mxCell>
        <mxCell id="Zx4kyqt7cUMsGUTJRAwY-6" style="edgeStyle=orthogonalEdgeStyle;rounded=0;orthogonalLoop=1;jettySize=auto;html=1;" parent="1" source="lq-rZMdZzkP-MELuQwHF-45" target="Zx4kyqt7cUMsGUTJRAwY-4" edge="1">
          <mxGeometry relative="1" as="geometry" />
        </mxCell>
        <mxCell id="lq-rZMdZzkP-MELuQwHF-45" value="cms-api" style="rounded=0;whiteSpace=wrap;html=1;" parent="1" vertex="1">
          <mxGeometry x="210" y="310" width="140" height="300" as="geometry" />
        </mxCell>
        <mxCell id="ldqjTRxHHJKw579USSku-4" style="edgeStyle=none;rounded=0;orthogonalLoop=1;jettySize=auto;html=1;entryX=0.5;entryY=1;entryDx=0;entryDy=0;entryPerimeter=0;exitX=1;exitY=0.5;exitDx=0;exitDy=0;" edge="1" parent="1" source="lq-rZMdZzkP-MELuQwHF-46" target="Zx4kyqt7cUMsGUTJRAwY-4">
          <mxGeometry relative="1" as="geometry" />
        </mxCell>
        <mxCell id="lq-rZMdZzkP-MELuQwHF-46" value="video-api" style="rounded=0;whiteSpace=wrap;html=1;" parent="1" vertex="1">
          <mxGeometry x="210" y="600" width="140" height="40" as="geometry" />
        </mxCell>
        <mxCell id="ldqjTRxHHJKw579USSku-5" style="edgeStyle=none;rounded=0;orthogonalLoop=1;jettySize=auto;html=1;exitX=1;exitY=0.5;exitDx=0;exitDy=0;" edge="1" parent="1" source="Zx4kyqt7cUMsGUTJRAwY-1">
          <mxGeometry relative="1" as="geometry">
            <mxPoint x="470" y="520" as="targetPoint" />
          </mxGeometry>
        </mxCell>
        <mxCell id="Zx4kyqt7cUMsGUTJRAwY-1" value="tac-api" style="rounded=0;whiteSpace=wrap;html=1;" parent="1" vertex="1">
          <mxGeometry x="210" y="640" width="140" height="40" as="geometry" />
        </mxCell>
        <mxCell id="Zx4kyqt7cUMsGUTJRAwY-2" value="&lt;span style=&quot;color: rgba(0 , 0 , 0 , 0.85) ; font-family: &amp;#34;helvetica neue for number&amp;#34; , , &amp;#34;blinkmacsystemfont&amp;#34; , &amp;#34;segoe ui&amp;#34; , &amp;#34;roboto&amp;#34; , &amp;#34;pingfang sc&amp;#34; , &amp;#34;hiragino sans gb&amp;#34; , &amp;#34;microsoft yahei&amp;#34; , &amp;#34;helvetica neue&amp;#34; , &amp;#34;helvetica&amp;#34; , &amp;#34;arial&amp;#34; , sans-serif ; text-align: left ; background-color: rgba(230 , 247 , 255 , 0.333)&quot;&gt;meishi-organization&lt;/span&gt;" style="strokeWidth=2;html=1;shape=mxgraph.flowchart.database;whiteSpace=wrap;" parent="1" vertex="1">
          <mxGeometry x="390" y="170.5" width="160" height="119" as="geometry" />
        </mxCell>
        <mxCell id="Zx4kyqt7cUMsGUTJRAwY-4" value="meishi-db" style="strokeWidth=2;html=1;shape=mxgraph.flowchart.database;whiteSpace=wrap;" parent="1" vertex="1">
          <mxGeometry x="390" y="400.5" width="160" height="119" as="geometry" />
        </mxCell>
        <mxCell id="Zx4kyqt7cUMsGUTJRAwY-14" value="" style="shape=table;html=1;whiteSpace=wrap;startSize=0;container=1;collapsible=0;childLayout=tableLayout;fillColor=#647687;strokeColor=#314354;fontColor=#ffffff;" parent="1" vertex="1">
          <mxGeometry x="827" y="140" width="100" height="580" as="geometry" />
        </mxCell>
        <mxCell id="Zx4kyqt7cUMsGUTJRAwY-15" style="shape=partialRectangle;html=1;whiteSpace=wrap;collapsible=0;dropTarget=0;pointerEvents=0;fillColor=none;top=0;left=0;bottom=0;right=0;points=[[0,0.5],[1,0.5]];portConstraint=eastwest;" parent="Zx4kyqt7cUMsGUTJRAwY-14" vertex="1">
          <mxGeometry width="100" height="41" as="geometry" />
        </mxCell>
        <mxCell id="Zx4kyqt7cUMsGUTJRAwY-16" value="人员组织管理" style="shape=partialRectangle;html=1;whiteSpace=wrap;connectable=0;fillColor=#d5e8d4;top=0;left=0;bottom=0;right=0;overflow=hidden;strokeColor=#82b366;" parent="Zx4kyqt7cUMsGUTJRAwY-15" vertex="1">
          <mxGeometry width="100" height="41" as="geometry" />
        </mxCell>
        <mxCell id="Zx4kyqt7cUMsGUTJRAwY-17" value="" style="shape=partialRectangle;html=1;whiteSpace=wrap;collapsible=0;dropTarget=0;pointerEvents=0;fillColor=none;top=0;left=0;bottom=0;right=0;points=[[0,0.5],[1,0.5]];portConstraint=eastwest;" parent="Zx4kyqt7cUMsGUTJRAwY-14" vertex="1">
          <mxGeometry y="41" width="100" height="51" as="geometry" />
        </mxCell>
        <mxCell id="Zx4kyqt7cUMsGUTJRAwY-18" value="特殊部门/人员" style="shape=partialRectangle;html=1;whiteSpace=wrap;connectable=0;fillColor=#d5e8d4;top=0;left=0;bottom=0;right=0;overflow=hidden;strokeColor=#82b366;" parent="Zx4kyqt7cUMsGUTJRAwY-17" vertex="1">
          <mxGeometry width="100" height="51" as="geometry" />
        </mxCell>
        <mxCell id="Zx4kyqt7cUMsGUTJRAwY-19" value="" style="shape=partialRectangle;html=1;whiteSpace=wrap;collapsible=0;dropTarget=0;pointerEvents=0;fillColor=none;top=0;left=0;bottom=0;right=0;points=[[0,0.5],[1,0.5]];portConstraint=eastwest;" parent="Zx4kyqt7cUMsGUTJRAwY-14" vertex="1">
          <mxGeometry y="92" width="100" height="40" as="geometry" />
        </mxCell>
        <mxCell id="Zx4kyqt7cUMsGUTJRAwY-20" value="特殊群组" style="shape=partialRectangle;html=1;whiteSpace=wrap;connectable=0;fillColor=#d5e8d4;top=0;left=0;bottom=0;right=0;overflow=hidden;strokeColor=#82b366;" parent="Zx4kyqt7cUMsGUTJRAwY-19" vertex="1">
          <mxGeometry width="100" height="40" as="geometry" />
        </mxCell>
        <mxCell id="Zx4kyqt7cUMsGUTJRAwY-21" style="shape=partialRectangle;html=1;whiteSpace=wrap;collapsible=0;dropTarget=0;pointerEvents=0;fillColor=#dae8fc;top=0;left=0;bottom=0;right=0;points=[[0,0.5],[1,0.5]];portConstraint=eastwest;strokeColor=#6c8ebf;" parent="Zx4kyqt7cUMsGUTJRAwY-14" vertex="1">
          <mxGeometry y="132" width="100" height="41" as="geometry" />
        </mxCell>
        <mxCell id="Zx4kyqt7cUMsGUTJRAwY-22" value="部门同步管理" style="shape=partialRectangle;html=1;whiteSpace=wrap;connectable=0;fillColor=#d5e8d4;top=0;left=0;bottom=0;right=0;overflow=hidden;strokeColor=#82b366;" parent="Zx4kyqt7cUMsGUTJRAwY-21" vertex="1">
          <mxGeometry width="100" height="41" as="geometry" />
        </mxCell>
        <mxCell id="Zx4kyqt7cUMsGUTJRAwY-23" style="shape=partialRectangle;html=1;whiteSpace=wrap;collapsible=0;dropTarget=0;pointerEvents=0;fillColor=none;top=0;left=0;bottom=0;right=0;points=[[0,0.5],[1,0.5]];portConstraint=eastwest;" parent="Zx4kyqt7cUMsGUTJRAwY-14" vertex="1">
          <mxGeometry y="173" width="100" height="41" as="geometry" />
        </mxCell>
        <mxCell id="Zx4kyqt7cUMsGUTJRAwY-24" value="美事统计后台&lt;br&gt;（嵌入星火图表）" style="shape=partialRectangle;html=1;whiteSpace=wrap;connectable=0;top=0;left=0;bottom=0;right=0;overflow=hidden;fillColor=#fad9d5;strokeColor=#ae4132;" parent="Zx4kyqt7cUMsGUTJRAwY-23" vertex="1">
          <mxGeometry width="100" height="41" as="geometry" />
        </mxCell>
        <mxCell id="Zx4kyqt7cUMsGUTJRAwY-25" style="shape=partialRectangle;html=1;whiteSpace=wrap;collapsible=0;dropTarget=0;pointerEvents=0;fillColor=none;top=0;left=0;bottom=0;right=0;points=[[0,0.5],[1,0.5]];portConstraint=eastwest;" parent="Zx4kyqt7cUMsGUTJRAwY-14" vertex="1">
          <mxGeometry y="214" width="100" height="41" as="geometry" />
        </mxCell>
        <mxCell id="Zx4kyqt7cUMsGUTJRAwY-26" value="版本管理" style="shape=partialRectangle;html=1;whiteSpace=wrap;connectable=0;fillColor=#d5e8d4;top=0;left=0;bottom=0;right=0;overflow=hidden;strokeColor=#82b366;" parent="Zx4kyqt7cUMsGUTJRAwY-25" vertex="1">
          <mxGeometry width="100" height="41" as="geometry" />
        </mxCell>
        <mxCell id="Zx4kyqt7cUMsGUTJRAwY-27" style="shape=partialRectangle;html=1;whiteSpace=wrap;collapsible=0;dropTarget=0;pointerEvents=0;fillColor=none;top=0;left=0;bottom=0;right=0;points=[[0,0.5],[1,0.5]];portConstraint=eastwest;" parent="Zx4kyqt7cUMsGUTJRAwY-14" vertex="1">
          <mxGeometry y="255" width="100" height="40" as="geometry" />
        </mxCell>
        <mxCell id="Zx4kyqt7cUMsGUTJRAwY-28" value="应用中心" style="shape=partialRectangle;html=1;whiteSpace=wrap;connectable=0;fillColor=#d5e8d4;top=0;left=0;bottom=0;right=0;overflow=hidden;strokeColor=#82b366;" parent="Zx4kyqt7cUMsGUTJRAwY-27" vertex="1">
          <mxGeometry width="100" height="40" as="geometry" />
        </mxCell>
        <mxCell id="Zx4kyqt7cUMsGUTJRAwY-29" style="shape=partialRectangle;html=1;whiteSpace=wrap;collapsible=0;dropTarget=0;pointerEvents=0;fillColor=none;top=0;left=0;bottom=0;right=0;points=[[0,0.5],[1,0.5]];portConstraint=eastwest;" parent="Zx4kyqt7cUMsGUTJRAwY-14" vertex="1">
          <mxGeometry y="295" width="100" height="41" as="geometry" />
        </mxCell>
        <mxCell id="Zx4kyqt7cUMsGUTJRAwY-30" value="推送消息" style="shape=partialRectangle;html=1;whiteSpace=wrap;connectable=0;fillColor=#d5e8d4;top=0;left=0;bottom=0;right=0;overflow=hidden;strokeColor=#82b366;" parent="Zx4kyqt7cUMsGUTJRAwY-29" vertex="1">
          <mxGeometry width="100" height="41" as="geometry" />
        </mxCell>
        <mxCell id="Zx4kyqt7cUMsGUTJRAwY-31" style="shape=partialRectangle;html=1;whiteSpace=wrap;collapsible=0;dropTarget=0;pointerEvents=0;fillColor=none;top=0;left=0;bottom=0;right=0;points=[[0,0.5],[1,0.5]];portConstraint=eastwest;" parent="Zx4kyqt7cUMsGUTJRAwY-14" vertex="1">
          <mxGeometry y="336" width="100" height="41" as="geometry" />
        </mxCell>
        <mxCell id="Zx4kyqt7cUMsGUTJRAwY-32" value="表情包管理" style="shape=partialRectangle;html=1;whiteSpace=wrap;connectable=0;fillColor=#d5e8d4;top=0;left=0;bottom=0;right=0;overflow=hidden;strokeColor=#82b366;" parent="Zx4kyqt7cUMsGUTJRAwY-31" vertex="1">
          <mxGeometry width="100" height="41" as="geometry" />
        </mxCell>
        <mxCell id="Zx4kyqt7cUMsGUTJRAwY-33" style="shape=partialRectangle;html=1;whiteSpace=wrap;collapsible=0;dropTarget=0;pointerEvents=0;fillColor=none;top=0;left=0;bottom=0;right=0;points=[[0,0.5],[1,0.5]];portConstraint=eastwest;" parent="Zx4kyqt7cUMsGUTJRAwY-14" vertex="1">
          <mxGeometry y="377" width="100" height="41" as="geometry" />
        </mxCell>
        <mxCell id="Zx4kyqt7cUMsGUTJRAwY-34" value="意见评价" style="shape=partialRectangle;html=1;whiteSpace=wrap;connectable=0;fillColor=#d5e8d4;top=0;left=0;bottom=0;right=0;overflow=hidden;strokeColor=#82b366;" parent="Zx4kyqt7cUMsGUTJRAwY-33" vertex="1">
          <mxGeometry width="100" height="41" as="geometry" />
        </mxCell>
        <mxCell id="Zx4kyqt7cUMsGUTJRAwY-35" style="shape=partialRectangle;html=1;whiteSpace=wrap;collapsible=0;dropTarget=0;pointerEvents=0;fillColor=none;top=0;left=0;bottom=0;right=0;points=[[0,0.5],[1,0.5]];portConstraint=eastwest;" parent="Zx4kyqt7cUMsGUTJRAwY-14" vertex="1">
          <mxGeometry y="418" width="100" height="40" as="geometry" />
        </mxCell>
        <mxCell id="Zx4kyqt7cUMsGUTJRAwY-36" value="无线投屏固件" style="shape=partialRectangle;html=1;whiteSpace=wrap;connectable=0;fillColor=#d5e8d4;top=0;left=0;bottom=0;right=0;overflow=hidden;strokeColor=#82b366;" parent="Zx4kyqt7cUMsGUTJRAwY-35" vertex="1">
          <mxGeometry width="100" height="40" as="geometry" />
        </mxCell>
        <mxCell id="Zx4kyqt7cUMsGUTJRAwY-43" style="shape=partialRectangle;html=1;whiteSpace=wrap;collapsible=0;dropTarget=0;pointerEvents=0;fillColor=none;top=0;left=0;bottom=0;right=0;points=[[0,0.5],[1,0.5]];portConstraint=eastwest;" parent="Zx4kyqt7cUMsGUTJRAwY-14" vertex="1">
          <mxGeometry y="458" width="100" height="40" as="geometry" />
        </mxCell>
        <mxCell id="Zx4kyqt7cUMsGUTJRAwY-44" value="操作日志" style="shape=partialRectangle;html=1;whiteSpace=wrap;connectable=0;fillColor=#d0cee2;top=0;left=0;bottom=0;right=0;overflow=hidden;strokeColor=#56517e;" parent="Zx4kyqt7cUMsGUTJRAwY-43" vertex="1">
          <mxGeometry width="100" height="40" as="geometry" />
        </mxCell>
        <mxCell id="Zx4kyqt7cUMsGUTJRAwY-37" style="shape=partialRectangle;html=1;whiteSpace=wrap;collapsible=0;dropTarget=0;pointerEvents=0;fillColor=none;top=0;left=0;bottom=0;right=0;points=[[0,0.5],[1,0.5]];portConstraint=eastwest;" parent="Zx4kyqt7cUMsGUTJRAwY-14" vertex="1">
          <mxGeometry y="498" width="100" height="41" as="geometry" />
        </mxCell>
        <mxCell id="Zx4kyqt7cUMsGUTJRAwY-38" value="视频会议管理" style="shape=partialRectangle;html=1;whiteSpace=wrap;connectable=0;fillColor=#ffe6cc;top=0;left=0;bottom=0;right=0;overflow=hidden;strokeColor=#d79b00;" parent="Zx4kyqt7cUMsGUTJRAwY-37" vertex="1">
          <mxGeometry width="100" height="41" as="geometry" />
        </mxCell>
        <mxCell id="Zx4kyqt7cUMsGUTJRAwY-39" style="shape=partialRectangle;html=1;whiteSpace=wrap;collapsible=0;dropTarget=0;pointerEvents=0;fillColor=none;top=0;left=0;bottom=0;right=0;points=[[0,0.5],[1,0.5]];portConstraint=eastwest;" parent="Zx4kyqt7cUMsGUTJRAwY-14" vertex="1">
          <mxGeometry y="539" width="100" height="41" as="geometry" />
        </mxCell>
        <mxCell id="Zx4kyqt7cUMsGUTJRAwY-40" value="首页活动管理" style="shape=partialRectangle;html=1;whiteSpace=wrap;connectable=0;fillColor=#ffe6cc;top=0;left=0;bottom=0;right=0;overflow=hidden;strokeColor=#d79b00;" parent="Zx4kyqt7cUMsGUTJRAwY-39" vertex="1">
          <mxGeometry width="100" height="41" as="geometry" />
        </mxCell>
        <mxCell id="ldqjTRxHHJKw579USSku-3" style="edgeStyle=none;rounded=0;orthogonalLoop=1;jettySize=auto;html=1;entryX=-0.002;entryY=0.863;entryDx=0;entryDy=0;entryPerimeter=0;" edge="1" parent="1" source="Zx4kyqt7cUMsGUTJRAwY-41" target="Zx4kyqt7cUMsGUTJRAwY-25">
          <mxGeometry relative="1" as="geometry" />
        </mxCell>
        <mxCell id="Zx4kyqt7cUMsGUTJRAwY-41" value="管理员" style="shape=umlActor;verticalLabelPosition=bottom;verticalAlign=top;html=1;outlineConnect=0;" parent="1" vertex="1">
          <mxGeometry x="710" y="360" width="30" height="60" as="geometry" />
        </mxCell>
        <mxCell id="Zx4kyqt7cUMsGUTJRAwY-42" value="Operate&lt;br&gt;Log" style="rounded=0;whiteSpace=wrap;html=1;" parent="1" vertex="1">
          <mxGeometry x="927" y="140" width="53" height="580" as="geometry" />
        </mxCell>
        <mxCell id="Zx4kyqt7cUMsGUTJRAwY-81" style="edgeStyle=orthogonalEdgeStyle;rounded=0;orthogonalLoop=1;jettySize=auto;html=1;entryX=0;entryY=0.5;entryDx=0;entryDy=0;entryPerimeter=0;exitX=1;exitY=0.5;exitDx=0;exitDy=0;" parent="1" source="Zx4kyqt7cUMsGUTJRAwY-73" target="Zx4kyqt7cUMsGUTJRAwY-77" edge="1">
          <mxGeometry relative="1" as="geometry">
            <Array as="points">
              <mxPoint x="1120" y="460" />
            </Array>
          </mxGeometry>
        </mxCell>
        <mxCell id="ldqjTRxHHJKw579USSku-6" style="edgeStyle=none;rounded=0;orthogonalLoop=1;jettySize=auto;html=1;entryX=0;entryY=0.5;entryDx=0;entryDy=0;entryPerimeter=0;exitX=1.017;exitY=0.379;exitDx=0;exitDy=0;exitPerimeter=0;" edge="1" parent="1" source="Zx4kyqt7cUMsGUTJRAwY-73" target="Zx4kyqt7cUMsGUTJRAwY-76">
          <mxGeometry relative="1" as="geometry" />
        </mxCell>
        <mxCell id="Zx4kyqt7cUMsGUTJRAwY-73" value="cms-api" style="rounded=0;whiteSpace=wrap;html=1;" parent="1" vertex="1">
          <mxGeometry x="980" y="140" width="140" height="500" as="geometry" />
        </mxCell>
        <mxCell id="ldqjTRxHHJKw579USSku-1" style="edgeStyle=none;rounded=0;orthogonalLoop=1;jettySize=auto;html=1;entryX=0.5;entryY=1;entryDx=0;entryDy=0;entryPerimeter=0;exitX=1;exitY=0.5;exitDx=0;exitDy=0;" edge="1" parent="1" source="Zx4kyqt7cUMsGUTJRAwY-74" target="Zx4kyqt7cUMsGUTJRAwY-77">
          <mxGeometry relative="1" as="geometry" />
        </mxCell>
        <mxCell id="Zx4kyqt7cUMsGUTJRAwY-74" value="video-api" style="rounded=0;whiteSpace=wrap;html=1;" parent="1" vertex="1">
          <mxGeometry x="980" y="640" width="140" height="40" as="geometry" />
        </mxCell>
        <mxCell id="ldqjTRxHHJKw579USSku-2" style="edgeStyle=none;rounded=0;orthogonalLoop=1;jettySize=auto;html=1;exitX=1;exitY=0.5;exitDx=0;exitDy=0;" edge="1" parent="1" source="Zx4kyqt7cUMsGUTJRAwY-75">
          <mxGeometry relative="1" as="geometry">
            <mxPoint x="1260" y="520" as="targetPoint" />
          </mxGeometry>
        </mxCell>
        <mxCell id="Zx4kyqt7cUMsGUTJRAwY-75" value="tac-api" style="rounded=0;whiteSpace=wrap;html=1;" parent="1" vertex="1">
          <mxGeometry x="980" y="680" width="140" height="40" as="geometry" />
        </mxCell>
        <mxCell id="Zx4kyqt7cUMsGUTJRAwY-76" value="&lt;span style=&quot;color: rgba(0 , 0 , 0 , 0.85) ; font-family: &amp;#34;helvetica neue for number&amp;#34; , , &amp;#34;blinkmacsystemfont&amp;#34; , &amp;#34;segoe ui&amp;#34; , &amp;#34;roboto&amp;#34; , &amp;#34;pingfang sc&amp;#34; , &amp;#34;hiragino sans gb&amp;#34; , &amp;#34;microsoft yahei&amp;#34; , &amp;#34;helvetica neue&amp;#34; , &amp;#34;helvetica&amp;#34; , &amp;#34;arial&amp;#34; , sans-serif ; text-align: left ; background-color: rgba(230 , 247 , 255 , 0.333)&quot;&gt;meishi-organization&lt;/span&gt;" style="strokeWidth=2;html=1;shape=mxgraph.flowchart.database;whiteSpace=wrap;" parent="1" vertex="1">
          <mxGeometry x="1180" y="270" width="160" height="119" as="geometry" />
        </mxCell>
        <mxCell id="Zx4kyqt7cUMsGUTJRAwY-77" value="meishi-db" style="strokeWidth=2;html=1;shape=mxgraph.flowchart.database;whiteSpace=wrap;" parent="1" vertex="1">
          <mxGeometry x="1180" y="400.5" width="160" height="119" as="geometry" />
        </mxCell>
      </root>
    </mxGraphModel>
  </diagram>
</mxfile>
